<svg width="78" height="30" viewBox="0 0 78 30" fill="none" xmlns="http://www.w3.org/2000/svg">
<path d="M46.0168 28.8878L53.7541 0.390193C53.7957 0.169178 53.9855 0 54.2131 0H56.26L56.3847 0.0200598C56.6329 0.090447 56.7757 0.356996 56.7067 0.612627L48.968 29.1091C48.9264 29.334 48.7365 29.5 48.5089 29.5H46.4648L46.34 29.483C46.0931 29.41 45.9489 29.1454 46.0168 28.8878ZM54.5667 0.966161L47.0791 28.5359H48.158L55.6455 0.966161H54.5667Z" fill="black"/>
<path d="M4.29119 13.5371L17.9559 21.8499C18.1443 21.9411 18.2779 22.1421 18.2779 22.3728L18.2779 26.391C18.2745 26.4922 18.2496 26.5969 18.1944 26.6899C18.0377 26.9622 17.691 27.0502 17.4259 26.8874L0.300142 16.158C0.123347 16.0617 8.83783e-06 15.8682 8.81817e-06 15.6433L8.45472e-06 11.486C0.00182226 11.2907 0.0967836 11.0997 0.268563 10.9905L17.3909 0.109139C17.4812 0.0384 17.596 -1.28838e-05 17.7162 -1.28943e-05C18.0246 -1.29213e-05 18.278 0.260116 18.278 0.578282L18.278 4.59173C18.2729 4.79029 18.1744 4.98394 18.001 5.08978L4.29119 13.5371ZM17.1559 22.7034L3.46451 14.3724L3.3528 14.2844L3.22093 14.1473C3.17419 14.1007 3.13749 14.0494 3.11615 13.9971C2.99761 13.7728 2.97446 13.523 3.02931 13.2988L3.03784 13.2697C3.10282 13.039 3.2476 12.831 3.46291 12.7047L17.156 4.26588L17.156 1.61365L1.12063 11.8066L1.12063 15.3212L17.156 25.3649L17.1559 22.7034Z" fill="black"/>
<path d="M72.9868 13.4321L59.3221 5.11921C59.1337 5.02799 59.0001 4.82697 59.0001 4.5963V0.578152C59.0035 0.476898 59.0284 0.37223 59.0835 0.279192C59.2403 0.00690523 59.587 -0.0811184 59.8521 0.0816986L76.9778 10.8111C77.1546 10.9074 77.278 11.1009 77.278 11.3258V15.4832C77.2762 15.6784 77.1812 15.8694 77.0094 15.9787L59.8871 26.86C59.7968 26.9307 59.682 26.9691 59.5618 26.9691C59.2534 26.9691 59 26.709 59 26.3908V22.3774C59.0051 22.1788 59.1036 21.9852 59.277 21.8793L72.9868 13.4321ZM60.1221 4.26575L73.8135 12.5967L73.9252 12.6848L74.0571 12.8219C74.1038 12.8684 74.1405 12.9197 74.1618 12.972C74.2804 13.1964 74.3035 13.4461 74.2487 13.6703L74.2401 13.6994C74.1752 13.9301 74.0304 14.1382 73.8151 14.2644L60.122 22.7032V25.3555L76.1574 15.1625V11.6479L60.122 1.60424L60.1221 4.26575Z" fill="black"/>
<path d="M26.2642 5.45455H30.0568L34.0625 15.2273H34.233L38.2386 5.45455H42.0312V20H39.0483V10.5327H38.9276L35.1634 19.929H33.1321L29.3679 10.4972H29.2472V20H26.2642V5.45455Z" fill="white"/>
</svg>
